<svg width="115" height="32" viewBox="0 0 115 32" fill="none" xmlns="http://www.w3.org/2000/svg">
<path opacity="0.8" d="M32.3491 1.88887C32.3491 0.48818 30.6651 -0.223776 29.6604 0.752116L0.684372 28.8955C-0.336372 29.8869 0.365494 31.6169 1.78845 31.6169H30.7644C31.6396 31.6169 32.3491 30.9074 32.3491 30.0322V1.88887Z" fill="url(#paint0_linear_2670_9666)"/>
<path opacity="0.8" d="M0.259766 1.904C0.259766 0.501127 1.94828 -0.209872 2.95179 0.770442L31.7458 28.8987C32.7621 29.8915 32.0592 31.6169 30.6384 31.6169H1.84444C0.969249 31.6169 0.259766 30.9074 0.259766 30.0323V1.904Z" fill="url(#paint1_linear_2670_9666)"/>
<path d="M45 9.78613V1.27539C45 1.09766 45.0615 0.944987 45.1846 0.817383C45.3076 0.689779 45.458 0.625977 45.6357 0.625977H47.6455C47.805 0.625977 47.9736 0.689779 48.1514 0.817383C48.3291 0.944987 48.4749 1.09766 48.5889 1.27539L52.7178 7.62598V1.26172C52.7178 1.08398 52.7793 0.933594 52.9023 0.810547C53.0299 0.6875 53.1826 0.625977 53.3604 0.625977H54.5361C54.7139 0.625977 54.8643 0.6875 54.9873 0.810547C55.1149 0.933594 55.1787 1.08854 55.1787 1.27539V9.78613C55.1787 9.96387 55.1149 10.1165 54.9873 10.2441C54.8643 10.3672 54.7139 10.4287 54.5361 10.4287H52.2666C52.0889 10.4287 51.9066 10.3672 51.7197 10.2441C51.5329 10.1165 51.3848 9.96387 51.2754 9.78613L47.4951 3.9209V9.78613C47.4951 9.96387 47.4313 10.1165 47.3037 10.2441C47.1807 10.3672 47.0303 10.4287 46.8525 10.4287H45.6494C45.4717 10.4287 45.319 10.3672 45.1914 10.2441C45.0638 10.1165 45 9.96387 45 9.78613Z" fill="#25292F"/>
<path d="M57.1406 9.77246V1.26172C57.1406 1.08398 57.2044 0.933594 57.332 0.810547C57.4596 0.6875 57.6123 0.625977 57.79 0.625977H65.6719C65.8496 0.625977 66 0.689779 66.123 0.817383C66.2507 0.944987 66.3145 1.09766 66.3145 1.27539V1.91797C66.3145 2.0957 66.2507 2.24837 66.123 2.37598C66 2.49902 65.8496 2.56055 65.6719 2.56055H59.7178V4.9668H64.5645C64.7422 4.9668 64.8926 5.0306 65.0156 5.1582C65.1432 5.28581 65.207 5.4362 65.207 5.60938V6.25879C65.207 6.43652 65.1432 6.58919 65.0156 6.7168C64.8926 6.83984 64.7422 6.90137 64.5645 6.90137H59.7178V9.77246C59.7178 9.95931 59.654 10.1165 59.5264 10.2441C59.4033 10.3672 59.2529 10.4287 59.0752 10.4287H57.79C57.6123 10.4287 57.4596 10.3672 57.332 10.2441C57.2044 10.1165 57.1406 9.95931 57.1406 9.77246Z" fill="#25292F"/>
<path d="M66.5947 1.91797V1.27539C66.5947 1.08854 66.6562 0.933594 66.7793 0.810547C66.9023 0.6875 67.0573 0.625977 67.2441 0.625977H75.9189C76.1058 0.625977 76.2607 0.6875 76.3838 0.810547C76.5068 0.933594 76.5684 1.08854 76.5684 1.27539V1.91797C76.5684 2.10482 76.5068 2.25977 76.3838 2.38281C76.2607 2.5013 76.1058 2.56055 75.9189 2.56055H72.8701V9.7998C72.8701 9.97754 72.8063 10.1279 72.6787 10.251C72.5557 10.3695 72.4053 10.4287 72.2275 10.4287H70.9355C70.7578 10.4287 70.6051 10.3695 70.4775 10.251C70.3545 10.1279 70.293 9.97754 70.293 9.7998V2.56055H67.2441C67.0573 2.56055 66.9023 2.5013 66.7793 2.38281C66.6562 2.25977 66.5947 2.10482 66.5947 1.91797Z" fill="#25292F"/>
<path d="M45 29.1584V16.4333C45 16.1531 45.0923 15.9172 45.2769 15.7258C45.4614 15.5344 45.687 15.4387 45.9536 15.4387H50.127C50.3936 15.4387 50.6465 15.5344 50.8857 15.7258C51.125 15.9172 51.2856 16.1462 51.3677 16.4128L54.3926 25.1697L57.4175 16.4128C57.4995 16.1462 57.6602 15.9172 57.8994 15.7258C58.1387 15.5344 58.3916 15.4387 58.6582 15.4387H62.8315C63.0981 15.4387 63.3203 15.5344 63.498 15.7258C63.6826 15.9172 63.7749 16.1531 63.7749 16.4333V29.1584C63.7749 29.4387 63.6792 29.6746 63.4878 29.866C63.3032 30.0505 63.0776 30.1428 62.811 30.1428H60.9653C60.6987 30.1428 60.4697 30.0505 60.2783 29.866C60.0938 29.6746 60.0015 29.4387 60.0015 29.1584V19.1404L56.3818 29.22C56.2861 29.4729 56.1187 29.6917 55.8794 29.8762C55.6401 30.054 55.3872 30.1428 55.1206 30.1428H53.6543C53.3877 30.1428 53.1348 30.054 52.8955 29.8762C52.6631 29.6917 52.4956 29.4729 52.3931 29.22L48.7837 19.1404V29.1584C48.7837 29.4387 48.688 29.6746 48.4966 29.866C48.312 30.0505 48.0864 30.1428 47.8198 30.1428H45.9741C45.7075 30.1428 45.4785 30.0505 45.2871 29.866C45.0957 29.6746 45 29.4387 45 29.1584Z" fill="#8C6AFC"/>
<path d="M67.2305 29.4045C66.3281 28.7756 65.877 27.887 65.877 26.7385C65.877 25.5901 66.3281 24.7083 67.2305 24.093C68.1396 23.4778 69.3086 23.1702 70.7373 23.1702H74.1313C74.1313 22.3704 73.9639 21.8132 73.6289 21.4988C73.2939 21.1843 72.7061 21.0271 71.8652 21.0271C71.0312 21.0271 70.4434 21.2356 70.1016 21.6526C69.7666 22.0627 69.353 22.2678 68.8608 22.2678H67.333C67.1484 22.2678 66.9946 22.2097 66.8716 22.0935C66.7554 21.9705 66.6973 21.8201 66.6973 21.6423C66.6973 19.6804 68.5601 18.6995 72.2856 18.6995C73.9126 18.6995 75.2183 19.0652 76.2026 19.7966C77.187 20.5212 77.6792 21.6458 77.6792 23.1702V29.5173C77.6792 29.7019 77.6211 29.8523 77.5049 29.9685C77.3887 30.0847 77.2383 30.1428 77.0537 30.1428H75.0747C74.8901 30.1428 74.7397 30.0847 74.6235 29.9685C74.5073 29.8455 74.4492 29.6951 74.4492 29.5173V29.1995C73.3691 29.9719 72.1216 30.3547 70.7065 30.3479C69.2983 30.3479 68.1396 30.0334 67.2305 29.4045ZM70.9834 25.4978C70.5049 25.4978 70.1255 25.614 69.8452 25.8464C69.5718 26.0789 69.4351 26.3796 69.4351 26.7488C69.4351 27.1179 69.5786 27.4221 69.8657 27.6614C70.1528 27.9006 70.5596 28.0203 71.0859 28.0203C72.1387 28.0203 73.1538 27.7126 74.1313 27.0974V25.4978H70.9834Z" fill="#8C6AFC"/>
<path d="M91.5425 29.6917C91.5425 29.9924 91.3647 30.1428 91.0093 30.1428H89.0713C88.415 30.1428 87.8921 29.8215 87.5024 29.179L86.2002 27.0564C85.6396 26.1472 84.8262 25.6926 83.7598 25.6926V29.5173C83.7598 29.7019 83.6982 29.8523 83.5752 29.9685C83.459 30.0847 83.312 30.1428 83.1343 30.1428H80.8374C80.6528 30.1428 80.5024 30.0847 80.3862 29.9685C80.27 29.8523 80.2119 29.7019 80.2119 29.5173V16.0745C80.2119 15.8899 80.27 15.7395 80.3862 15.6233C80.5093 15.5002 80.6597 15.4387 80.8374 15.4387H83.1343C83.3188 15.4387 83.4692 15.5002 83.5854 15.6233C83.7017 15.7395 83.7598 15.8899 83.7598 16.0745V23.3547C84.9492 23.3547 85.7627 22.8933 86.2002 21.9705L87.1846 19.8787C87.3213 19.5847 87.5229 19.3489 87.7896 19.1711C88.0562 18.9934 88.3433 18.9045 88.6509 18.9045H90.5889C90.9307 18.9045 91.1016 19.0378 91.1016 19.3044C91.1016 19.4548 91.0469 19.6462 90.9375 19.8787L89.6147 22.6677C89.3892 23.1326 89.0815 23.5325 88.6919 23.8674C88.3022 24.2024 87.8818 24.4177 87.4307 24.5134C88.2715 24.7664 88.9995 25.3816 89.6147 26.3591L91.3579 29.179C91.4741 29.3772 91.5356 29.5481 91.5425 29.6917Z" fill="#8C6AFC"/>
<path d="M93.7676 28.8508C92.7148 27.8528 92.1885 26.4172 92.1885 24.5442C92.1885 22.6643 92.7183 21.2219 93.7778 20.217C94.8374 19.2053 96.3071 18.6995 98.187 18.6995C100.067 18.6995 101.533 19.1917 102.586 20.176C103.639 21.1536 104.165 22.5583 104.165 24.3904V24.9749C104.165 25.1594 104.104 25.3132 103.98 25.4363C103.864 25.5525 103.714 25.6106 103.529 25.6106H95.8081C95.8765 26.4514 96.1157 27.0632 96.5259 27.446C96.9429 27.8289 97.606 28.0203 98.5151 28.0203C99.4243 28.0203 100.046 27.8152 100.381 27.405C100.716 26.9949 101.13 26.7864 101.622 26.7795H103.15C103.334 26.7795 103.485 26.8411 103.601 26.9641C103.724 27.0803 103.786 27.2307 103.786 27.4153C103.786 29.3772 101.916 30.3547 98.1768 30.3479C96.29 30.3479 94.8203 29.8489 93.7676 28.8508ZM95.7876 23.447H100.556C100.487 21.8337 99.6943 21.0271 98.1768 21.0271C96.666 21.0271 95.8696 21.8337 95.7876 23.447Z" fill="#8C6AFC"/>
<path d="M113.824 21.509L112.245 21.4475C111.322 21.4475 110.44 21.9534 109.6 22.9651V29.5173C109.6 29.7019 109.538 29.8523 109.415 29.9685C109.299 30.0847 109.152 30.1428 108.974 30.1428H106.677C106.493 30.1428 106.342 30.0847 106.226 29.9685C106.11 29.8523 106.052 29.7019 106.052 29.5173V19.5403C106.052 19.3557 106.11 19.2053 106.226 19.0891C106.349 18.9661 106.5 18.9045 106.677 18.9045H108.974C109.159 18.9045 109.309 18.9661 109.425 19.0891C109.542 19.2053 109.6 19.3557 109.6 19.5403V20.1863C110.297 19.6804 110.967 19.3079 111.609 19.0686C112.259 18.8225 113.106 18.6995 114.152 18.6995C114.337 18.6995 114.487 18.761 114.604 18.884C114.727 19.0002 114.788 19.1472 114.788 19.325V20.8835C114.788 21.0681 114.727 21.2185 114.604 21.3347C114.487 21.4509 114.337 21.509 114.152 21.509H113.824Z" fill="#8C6AFC"/>
<defs>
<linearGradient id="paint0_linear_2670_9666" x1="0.857571" y1="-0.665513" x2="17.9538" y2="36.5543" gradientUnits="userSpaceOnUse">
<stop stop-color="#44B3FF"/>
<stop offset="1" stop-color="#6248FF"/>
</linearGradient>
<linearGradient id="paint1_linear_2670_9666" x1="1.25019" y1="0.319583" x2="37.2744" y2="17.5746" gradientUnits="userSpaceOnUse">
<stop stop-color="#EB4CC2"/>
<stop offset="1" stop-color="#845FFF"/>
</linearGradient>
</defs>
</svg>
